<?xml version="1.0" encoding="UTF-8"?>
<svg version="1.1" viewBox="0 0 3225.6 691.13" xmlns="http://www.w3.org/2000/svg" xmlns:xlink="http://www.w3.org/1999/xlink">
 <defs>
  <clipPath id="clipPath12538">
   <circle transform="scale(1,-1)" cx="55.08" cy="-777.84" r="7.92" stop-color="#000000"/>
  </clipPath>
  <clipPath id="clipPath20714">
   <path d="m72.957 51.15a34.557 34.557 0 0 0-34.557 34.557 34.557 34.557 0 0 0 34.557 34.557 34.557 34.557 0 0 0 24.438-10.25l-2.1973-2.2031a31.357 31.357 0 0 1-22.24 9.2539 31.357 31.357 0 0 1-31.357-31.357 31.357 31.357 0 0 1 31.357-31.357 31.357 31.357 0 0 1 22.24 9.2539l2.1973-2.2031a34.557 34.557 0 0 0-24.438-10.25zm0 4.1602a30.397 30.397 0 0 0-30.396 30.396 30.397 30.397 0 0 0 30.396 30.396 30.397 30.397 0 0 0 21.557-8.9766l-2.0293-2.0332a27.517 27.517 0 0 1-19.527 8.1309 27.517 27.517 0 0 1-27.518-27.518 27.517 27.517 0 0 1 27.518-27.518 27.517 27.517 0 0 1 19.527 8.1309l2.0293-2.0332a30.397 30.397 0 0 0-21.557-8.9766zm0 3.8398a26.557 26.557 0 0 0-26.557 26.557 26.557 26.557 0 0 0 26.557 26.557 26.557 26.557 0 0 0 18.844-7.8574l-1.8672-1.8711a23.997 23.997 0 0 1-16.977 7.168 23.997 23.997 0 0 1-23.996-23.996 23.997 23.997 0 0 1 23.996-23.998 23.997 23.997 0 0 1 17.035 7.1113l1.8086-1.8125a26.557 26.557 0 0 0-18.844-7.8574zm0 3.5195a23.037 23.037 0 0 0-23.037 23.037 23.037 23.037 0 0 0 23.037 23.037 23.037 23.037 0 0 0 16.361-6.8242l-1.3594-1.3652a21.117 21.117 0 0 1-15.002 6.2695 21.117 21.117 0 0 1-21.117-21.117 21.117 21.117 0 0 1 21.117-21.117 21.117 21.117 0 0 1 15.002 6.2695l1.3594-1.3652a23.037 23.037 0 0 0-16.361-6.8242zm0 3.0371a20 20 0 0 0-20 20 20 20 0 0 0 20 20 20 20 0 0 0 14.213-5.9434l-1.2461-1.25a18.237 18.237 0 0 1-12.967 5.4297 18.237 18.237 0 0 1-18.236-18.236 18.237 18.237 0 0 1 18.236-18.236 18.237 18.237 0 0 1 12.967 5.4297l1.25-1.2559a20 20 0 0 0-14.217-5.9375z" fill="#f00" stop-color="#000000"/>
  </clipPath>
 </defs>
 <g transform="translate(-38.4 -51.15)">
  <g transform="matrix(10 0 0 10 -345.6 -460.35)" clip-path="url(#clipPath20714)" fill-rule="evenodd">
   <path d="m73.92 85.547 0.96008 49.6 4.7997-0.32055 2.5605-0.32031 2.2402-0.31836 2.5586-0.64062 2.2402-0.96094 2.2402-0.63867 2.5605-0.96094 2.2402-0.95899 1.9199-1.2812 2.2402-1.2793 1.9199-1.2793 2.2402-1.6016 1.9199-1.5996 1.5996-1.5996 1.9199-1.5996 3.1992-3.8398 1.2812-1.9199 1.5996-2.2402 1.2793-1.9199 0.96094-2.2402 0.95899-2.2402 0.96093-2.2402 0.95899-2.5605 0.64062-2.2383z"/>
   <path d="m73.92 85.547 48.32-11.52-0.64-2.56-47.68 14.08" fill="#304a49"/>
   <path d="m73.92 85.547 47.68-14.08-0.96-2.24-46.72 16.32" fill="#334f50"/>
   <path d="m73.92 85.547-47.91 11.818 2.1495 7.0623 45.76-18.88" fill="#a9b9b8"/>
   <path d="m73.92 85.547-46.72 16.64 1.92 4.48 44.8-21.12" fill="#a3b5b5"/>
   <path d="m73.92 85.547 46.72-16.32-0.64-2.24-46.08 18.56" fill="#3f5959"/>
   <path d="m73.92 85.547-45.76 18.88 2.24 4.48 43.52-23.36" fill="#9fb0b0"/>
   <path d="m73.92 85.547 46.08-18.56-0.96-2.24-45.12 20.8" fill="#496160"/>
   <path d="m73.92 85.547-44.8 21.12 2.56 4.48 42.24-25.6" fill="#9badac"/>
   <path d="m73.92 85.547 45.12-20.8-1.28-2.24-43.84 23.04" fill="#4e6766"/>
   <path d="m73.92 85.547-43.52 23.36 2.56 4.16 40.96-27.52" fill="#96a8a7"/>
   <path d="m73.92 85.547 43.84-23.04-1.28-2.24-42.56 25.28" fill="#526d6e"/>
   <path d="m73.92 85.547-42.24 25.6 2.56 3.84 39.68-29.44" fill="#90a4a4"/>
   <path d="m73.92 85.547 42.56-25.28-1.28-2.24-41.28 27.52" fill="#5c7575"/>
   <path d="m73.92 85.547-40.96 27.52 2.88 3.84 38.08-31.36" fill="#8ba0a1"/>
   <path d="m73.92 85.547 41.28-27.52-1.28-1.92-40 29.44" fill="#637b7a"/>
   <path d="m73.92 85.547-39.68 29.44 3.2 3.84 36.48-33.28" fill="#869b9b"/>
   <path d="m73.92 85.547 40-29.44-1.6-1.92-38.4 31.36" fill="#6a8180"/>
   <path d="m73.92 85.547-38.08 31.36 3.2 3.84 34.88-35.2" fill="#819695"/>
   <path d="m73.92 85.547 38.4-31.36-1.6-1.92-36.8 33.28" fill="#6f8788"/>
   <path d="m73.92 85.547-36.48 33.28 3.52 3.52 32.96-36.8" fill="#7c9190"/>
   <path d="m73.92 85.547 36.8-33.28-1.6-1.6-35.2 34.88" fill="#748b8c"/>
   <path d="m73.92 85.547-34.88 35.2 3.84 3.2 31.04-38.4" fill="#748b8c"/>
   <path d="m73.92 85.547 35.2-34.88-3.84-3.52-31.36 38.4" fill="#7c9190"/>
   <path d="m73.92 85.547-32.96 36.8 3.84 3.2 29.12-40" fill="#6f8788"/>
   <path d="m73.92 85.547 33.28-36.8-3.8548-2.86-29.425 39.66" fill="#819695"/>
   <path d="m73.92 85.547-31.04 38.4 3.84 2.88 27.2-41.28" fill="#6a8180"/>
   <path d="m73.92 85.547 31.36-38.4-3.84-2.88-27.52 41.28" fill="#869b9b"/>
   <path d="m73.92 85.547-29.12 40 4.16 2.56 24.96-42.56" fill="#637b7a"/>
   <path d="m73.92 85.547 29.44-39.68-4.16-2.88-25.28 42.56" fill="#8ba0a1"/>
   <path d="m73.92 85.547-27.2 41.28 4.16 2.56 23.04-43.84" fill="#5c7575"/>
   <path d="m73.92 85.547 27.52-41.28-4.16-2.56-23.36 43.84" fill="#90a4a4"/>
   <path d="m73.92 85.547-24.96 42.56 4.16 2.56 20.8-45.12" fill="#526d6e"/>
   <path d="m73.92 85.547 25.28-42.56-4.16-2.24-21.12 44.8" fill="#96a8a7"/>
   <path d="m73.92 85.547-23.04 43.84 4.48 2.24 18.56-46.08" fill="#4e6766"/>
   <path d="m73.92 85.547 23.36-43.84-4.48-1.92-18.88 45.76" fill="#9badac"/>
   <path d="m73.92 85.547-20.8 45.12 4.8 1.6 16-46.72" fill="#496160"/>
   <path d="m73.92 85.547 21.12-44.8-4.8-1.92-16.32 46.72" fill="#9fb0b0"/>
   <path d="m73.92 85.547-18.56 46.08 4.8 1.6 13.76-47.68" fill="#3f5959"/>
   <path d="m73.92 85.547 18.88-45.76-4.8-1.6-14.08 47.36" fill="#a3b5b5"/>
   <path d="m73.92 85.547-16 46.72 4.48 1.6 11.52-48.32" fill="#334f50"/>
   <path d="m73.92 85.547 16.32-46.72-4.8-1.28-11.52 48" fill="#a9b9b8"/>
   <path d="m73.92 85.547-13.76 47.68 4.8 0.96 8.96-48.64" fill="#304a49"/>
   <path d="m73.92 85.547 14.08-47.36-4.8-1.28-9.28 48.64" fill="#acbcba"/>
   <path d="m73.92 85.547-11.52 48.32 5.12 0.96 6.4-49.28" fill="#28403f"/>
   <path d="m73.92 85.547 11.52-48-4.8-0.96-6.72 48.96" fill="#b1c0bf"/>
   <path d="m73.92 85.547-8.96 48.64 4.8 0.64 4.16-49.28" fill="#1e3837"/>
   <path d="m73.92 85.547 9.28-48.64-4.8-0.64-4.48 49.28" fill="#b4c3c3"/>
   <path d="m73.92 85.547-6.4 49.28 4.8 0.32 1.6-49.6" fill="#0d2a2b"/>
   <path d="m73.92 85.547 6.72-48.96-4.8-0.32-1.92 49.28" fill="#b9c8c7"/>
   <path d="m73.92 85.547-4.16 49.28 5.12 0.32-0.96-49.6" fill="#092220"/>
   <path d="m73.92 85.547 4.48-49.28h-5.12l0.64 49.28" fill="#bdcbc9"/>
   <path d="m73.92 85.547-1.6 49.6h4.8l-3.2-49.6" fill="#001816"/>
   <path d="m73.92 85.547 1.92-49.28h-4.8l2.88 49.28" fill="#bfcdcb"/>
   <path d="m73.92 85.547 0.96 49.6h2.24l-3.2-49.6" fill="#000908"/>
   <path d="m73.92 85.547-0.64-49.28h-4.8l5.44 49.28" fill="#c4d0cf"/>
   <path d="m73.92 85.547-2.88-49.28-5.12 0.64 8 48.64" fill="#c8d4d5"/>
   <path d="m73.92 85.547-5.44-49.28-4.8 0.96 10.24 48.32" fill="#cad6d5"/>
   <path d="m73.92 85.547-8-48.64-4.8 0.96 12.8 47.68" fill="#ccd8d6"/>
   <path d="m73.92 85.547-10.24-48.32-4.8 1.28 15.04 47.04" fill="#cfdbd8"/>
   <path d="m73.92 85.547-12.8-47.68-4.8 1.6 17.6 46.08" fill="#d3dddb"/>
   <path d="m73.92 85.547-15.04-47.04-4.8 1.92 19.84 45.12" fill="#d7e1e1"/>
   <path d="m73.92 85.547-17.6-46.08-4.48 1.92 22.08 44.16" fill="#d8e2e2"/>
   <path d="m73.92 85.547-19.84-45.12-4.48 1.92 24.32 43.2" fill="#d9e3e1"/>
   <path d="m73.92 85.547-22.08-44.16-4.16 2.24 26.24 41.92" fill="#dbe5e3"/>
   <path d="m73.92 85.547-24.32-43.2-4.16 2.88 28.48 40.32" fill="#dee7e5"/>
   <path d="m73.92 85.547-26.24-41.92-4.16 2.88 30.4 39.04" fill="#e3eaea"/>
   <path d="m73.92 85.547-28.48-40.32-3.84 2.88 32.32 37.44" fill="#e5ecec"/>
   <path d="m73.92 85.547-30.4-39.04-3.52 3.2 33.92 35.84" fill="#e4ebea"/>
   <path d="m73.92 85.547-32.32-37.44-3.52 3.52 35.84 33.92" fill="#e5eceb"/>
   <path d="m73.92 85.547-33.92-35.84-3.52 3.84 37.44 32" fill="#e8eeee"/>
   <path d="m73.92 85.547-35.84-33.92-3.2 3.52 39.04 30.4" fill="#e5eceb"/>
   <path d="m73.92 85.547-37.44-32-3.2 3.84 40.64 28.16" fill="#e4ebea"/>
   <path d="m73.92 85.547-39.04-30.4-2.88 4.16 41.92 26.24" fill="#e5ecec"/>
   <path d="m73.92 85.547-40.64-28.16-2.56 4.16 43.2 24" fill="#e3eaea"/>
   <path d="m73.92 85.547-41.92-26.24-2.24 4.48 44.16 21.76" fill="#dee7e5"/>
   <path d="m73.92 85.547-43.2-24-2.24 4.48 45.44 19.52" fill="#dbe5e3"/>
   <path d="m73.92 85.547-44.16-21.76-1.92 4.48 46.08 17.28" fill="#d9e3e1"/>
   <path d="m73.92 85.547-45.44-19.52-1.6 4.48 47.04 15.04" fill="#d8e2e2"/>
   <path d="m73.92 85.547-46.08-17.28-1.6 4.48 47.68 12.8" fill="#d7e1e1"/>
   <path d="m73.92 85.547-47.04-15.04-1.28 4.8 48.32 10.24" fill="#d3dddb"/>
   <path d="m73.92 85.547-47.68-12.8-0.96 5.12 48.64 7.68" fill="#cfdbd8"/>
   <path d="m73.92 85.547-48.32-10.24-0.64 4.8 48.96 5.44" fill="#ccd8d6"/>
   <path d="m73.92 85.547-48.64-7.68-0.64 4.8 49.28 2.88" fill="#cad6d5"/>
   <path d="m73.92 85.547-48.96-5.44-0.32 5.12 49.28 0.32" fill="#c8d4d5"/>
   <path d="m73.92 85.547-49.28-2.88v4.8l49.28-1.92" fill="#c4d0cf"/>
   <path d="m73.92 85.547-49.28-0.32v4.8l49.28-4.48" fill="#bfcdcb"/>
   <path d="m73.92 85.547-49.28 1.92 0.32 5.12 48.96-7.04" fill="#bdcbc9"/>
   <path d="m73.92 85.547-49.28 4.48 0.64 4.8 48.64-9.28" fill="#b9c8c7"/>
   <path d="m73.92 85.547-48.96 7.04 0.96 4.8 48-11.84" fill="#b4c3c3"/>
   <path d="m73.92 85.547-48.64 9.28 1.28 4.8 47.36-14.08" fill="#b1c0bf"/>
   <path d="m73.92 85.547-48 11.84 0.64 2.24 47.36-14.08" fill="#acbcba"/>
  </g>
  <g transform="matrix(13.333 0 0 -13.333 -345.6 10766)" clip-path="url(#clipPath12538)">
   <path d="m67.2 780.72c0 9.1411-7.4189 16.56-16.56 16.56s-16.56-7.4189-16.56-16.56 7.4189-16.56 16.56-16.56 16.56 7.4189 16.56 16.56" fill="#11bf00"/>
   <path d="m66.96 780.72c0 9.0086-7.3114 16.32-16.32 16.32s-16.32-7.3114-16.32-16.32 7.3114-16.32 16.32-16.32 16.32 7.3114 16.32 16.32" fill="#13c300"/>
   <path d="m66.72 780.72c0 8.8761-7.2038 16.08-16.08 16.08s-16.08-7.2039-16.08-16.08 7.2038-16.08 16.08-16.08 16.08 7.2039 16.08 16.08" fill="#18cf00"/>
   <path d="m66.48 780.72c0 8.7437-7.0963 15.84-15.84 15.84s-15.84-7.0963-15.84-15.84 7.0963-15.84 15.84-15.84 15.84 7.0963 15.84 15.84" fill="#1ad400"/>
   <path d="m66.24 780.72c0 8.6112-6.9888 15.6-15.6 15.6s-15.6-6.9888-15.6-15.6 6.9888-15.6 15.6-15.6 15.6 6.9888 15.6 15.6" fill="#1fdf00"/>
   <path d="m66 780.96c0 8.2924-6.8813 15.12-15.36 15.12s-15.36-6.8276-15.36-15.24c0-8.4125 6.8813-15.24 15.36-15.24s15.36 6.8275 15.36 15.24" fill="#22e400"/>
   <path d="m65.76 780.96c0 8.16-6.72 14.88-15 14.88s-15-6.72-15-15c0-8.2801 6.72-15 15-15s15 6.7199 15 15" fill="#27eb00"/>
   <path d="m65.28 780.72c0 8.0813-6.5587 14.64-14.64 14.64s-14.64-6.5587-14.64-14.64 6.5587-14.64 14.64-14.64 14.64 6.5587 14.64 14.64" fill="#29f000"/>
   <path d="m65.04 780.72c0 7.9488-6.4512 14.4-14.4 14.4s-14.4-6.4512-14.4-14.4 6.4512-14.4 14.4-14.4 14.4 6.4512 14.4 14.4" fill="#2df600"/>
   <path d="m64.8 780.72c0 7.8163-6.3437 14.16-14.16 14.16s-14.16-6.3437-14.16-14.16 6.3437-14.16 14.16-14.16 14.16 6.3437 14.16 14.16" fill="#30f800"/>
   <path d="m64.56 780.72c0 7.6839-6.2362 13.92-13.92 13.92s-13.92-6.2361-13.92-13.92 6.2362-13.92 13.92-13.92 13.92 6.2361 13.92 13.92" fill="#30f901"/>
   <path d="m64.32 780.72c0 7.5514-6.1286 13.68-13.68 13.68s-13.68-6.1286-13.68-13.68 6.1286-13.68 13.68-13.68 13.68 6.1286 13.68 13.68" fill="#33fb01"/>
   <path d="m64.08 780.72c0 7.4189-6.0211 13.44-13.44 13.44s-13.44-6.0211-13.44-13.44 6.0211-13.44 13.44-13.44 13.44 6.0211 13.44 13.44" fill="#34fc01"/>
   <path d="m63.84 780.72c0 7.2864-5.9136 13.2-13.2 13.2s-13.2-5.9136-13.2-13.2 5.9136-13.2 13.2-13.2 13.2 5.9136 13.2 13.2" fill="#36fc01"/>
   <path d="m63.6 780.72c0 7.154-5.8061 12.96-12.96 12.96s-12.96-5.806-12.96-12.96 5.8061-12.96 12.96-12.96 12.96 5.8061 12.96 12.96" fill="#37fd01"/>
   <path d="m63.36 780.72c0 7.0215-5.6986 12.72-12.72 12.72s-12.72-5.6986-12.72-12.72 5.6986-12.72 12.72-12.72 12.72 5.6985 12.72 12.72" fill="#38fd01"/>
   <path d="m63.12 780.72c0 6.8889-5.591 12.48-12.48 12.48s-12.48-5.5911-12.48-12.48c0-6.889 5.591-12.48 12.48-12.48s12.48 5.591 12.48 12.48" fill="#39fe01"/>
   <path d="m62.88 780.72c0 6.7565-5.4835 12.24-12.24 12.24s-12.24-5.4835-12.24-12.24 5.4835-12.24 12.24-12.24 12.24 5.4835 12.24 12.24" fill="#3afe01"/>
   <path d="m62.64 780.72c0 6.624-5.376 12-12 12s-12-5.376-12-12 5.376-12 12-12 12 5.376 12 12" fill="#3bfe01"/>
   <path d="m62.4 780.72c0 6.4915-5.2685 11.76-11.76 11.76s-11.76-5.2685-11.76-11.76 5.2685-11.76 11.76-11.76 11.76 5.2685 11.76 11.76" fill="#3bfe01"/>
   <path d="m62.16 780.96c0 6.1728-5.1072 11.28-11.4 11.28s-11.4-5.1072-11.4-11.4 5.1072-11.4 11.4-11.4 11.4 5.1072 11.4 11.4" fill="#3cfe01"/>
   <path d="m61.68 780.96c0 6.04-4.9459 11.04-11.04 11.04s-11.04-5-11.04-11.16c0-6.1603 4.9459-11.16 11.04-11.16s11.04 4.9997 11.04 11.16" fill="#3cfe01"/>
   <path d="m61.44 780.72c0 5.9616-4.8384 10.8-10.8 10.8s-10.8-4.8384-10.8-10.8 4.8384-10.8 10.8-10.8 10.8 4.8384 10.8 10.8" fill="#3bfe01"/>
   <path d="m61.2 780.72c0 5.8291-4.7309 10.56-10.56 10.56s-10.56-4.7309-10.56-10.56 4.7309-10.56 10.56-10.56 10.56 4.7309 10.56 10.56" fill="#3bfe01"/>
   <path d="m60.96 780.72c0 5.6967-4.6234 10.32-10.32 10.32s-10.32-4.6233-10.32-10.32 4.6234-10.32 10.32-10.32 10.32 4.6233 10.32 10.32" fill="#3bfe01"/>
   <path d="m60.72 780.72c0 5.5642-4.5158 10.08-10.08 10.08s-10.08-4.5158-10.08-10.08 4.5158-10.08 10.08-10.08 10.08 4.5158 10.08 10.08" fill="#3bfe01"/>
   <path d="m60.48 780.72c0 5.4317-4.4083 9.8399-9.84 9.8399s-9.84-4.4082-9.84-9.8399 4.4083-9.84 9.84-9.84 9.84 4.4083 9.84 9.84" fill="#3bfe01"/>
   <path d="m60.24 780.72c0 5.2992-4.3008 9.6-9.6 9.6s-9.6-4.3008-9.6-9.6 4.3008-9.6 9.6-9.6 9.6 4.3008 9.6 9.6" fill="#3bfe01"/>
   <path d="m60 780.72c0 5.1667-4.1933 9.36-9.36 9.36s-9.36-4.1933-9.36-9.36 4.1933-9.36 9.36-9.36 9.36 4.1933 9.36 9.36" fill="#3afe01"/>
   <path d="m59.76 780.72c0 5.0343-4.0858 9.12-9.12 9.12s-9.12-4.0857-9.12-9.12 4.0858-9.12 9.12-9.12 9.12 4.0857 9.12 9.12" fill="#3afe02"/>
   <path d="m59.52 780.72c0 4.9018-3.9782 8.88-8.88 8.88s-8.88-3.9782-8.88-8.88 3.9782-8.88 8.88-8.88 8.88 3.9782 8.88 8.88" fill="#3afe02"/>
   <path d="m59.28 780.72c0 4.7693-3.8707 8.64-8.64 8.64s-8.64-3.8707-8.64-8.64 3.8707-8.64 8.64-8.64 8.64 3.8707 8.64 8.64" fill="#3afe02"/>
   <path d="m59.04 780.72c0 4.6368-3.7632 8.4-8.4 8.4s-8.4-3.7632-8.4-8.4 3.7632-8.4 8.4-8.4 8.4 3.7632 8.4 8.4" fill="#3afe02"/>
   <path d="m58.8 780.72c0 4.5043-3.6557 8.16-8.16 8.16s-8.16-3.6557-8.16-8.16 3.6557-8.1601 8.16-8.1601 8.16 3.6558 8.16 8.1601" fill="#3bfe02"/>
   <path d="m58.56 780.96c0 4.1856-3.5482 7.68-7.92 7.68s-7.92-3.4944-7.92-7.8 3.5482-7.8 7.92-7.8 7.92 3.4944 7.92 7.8" fill="#3dfe02"/>
   <path d="m58.32 780.96c0 4.0531-3.3869 7.44-7.56 7.44s-7.56-3.3869-7.56-7.56 3.3869-7.56 7.56-7.56 7.56 3.3869 7.56 7.56" fill="#3efe03"/>
   <path d="m57.84 780.72c0 3.9745-3.2256 7.2-7.2 7.2s-7.2-3.2255-7.2-7.2 3.2256-7.2 7.2-7.2 7.2 3.2255 7.2 7.2" fill="#41fe03"/>
   <path d="m57.6 780.72c0 3.8419-3.1181 6.96-6.96 6.96s-6.96-3.1181-6.96-6.96 3.1181-6.96 6.96-6.96 6.96 3.1181 6.96 6.96" fill="#42fe03"/>
   <path d="m57.36 780.72c0 3.7094-3.0106 6.72-6.72 6.72s-6.72-3.0106-6.72-6.72c0-3.7095 3.0106-6.72 6.72-6.72s6.72 3.0105 6.72 6.72" fill="#46fe04"/>
   <path d="m57.12 780.72c0 3.577-2.903 6.48-6.48 6.48s-6.48-2.903-6.48-6.48c0-3.5769 2.903-6.48 6.48-6.48s6.48 2.9031 6.48 6.48" fill="#48fe04"/>
   <path d="m56.88 780.72c0 3.4445-2.7955 6.24-6.24 6.24s-6.24-2.7955-6.24-6.24 2.7955-6.24 6.24-6.24 6.24 2.7955 6.24 6.24" fill="#4cfe05"/>
   <path d="m56.64 780.72c0 3.312-2.688 6-6 6s-6-2.688-6-6 2.688-6 6-6 6 2.688 6 6" fill="#52fe06"/>
   <path d="m56.4 780.72c0 3.1795-2.5805 5.76-5.76 5.76s-5.76-2.5805-5.76-5.76 2.5805-5.76 5.76-5.76 5.76 2.5805 5.76 5.76" fill="#54ff07"/>
   <path d="m56.16 780.72c0 3.047-2.473 5.52-5.52 5.52s-5.52-2.473-5.52-5.52c0-3.0471 2.473-5.52 5.52-5.52s5.52 2.4729 5.52 5.52" fill="#5aff09"/>
   <path d="m55.92 780.72c0 2.9146-2.3654 5.28-5.28 5.28s-5.28-2.3654-5.28-5.28c0-2.9145 2.3654-5.2799 5.28-5.2799s5.28 2.3654 5.28 5.2799" fill="#5dff0a"/>
   <path d="m55.68 780.72c0 2.7821-2.2579 5.0399-5.04 5.0399s-5.04-2.2578-5.04-5.0399 2.2579-5.04 5.04-5.04 5.04 2.2579 5.04 5.04" fill="#62ff0e"/>
   <path d="m55.44 780.72c0 2.6496-2.1504 4.8-4.8 4.8s-4.8-2.1504-4.8-4.8 2.1504-4.8 4.8-4.8 4.8 2.1504 4.8 4.8" fill="#64ff0f"/>
   <path d="m55.2 780.72c0 2.5171-2.0429 4.56-4.56 4.56s-4.56-2.0429-4.56-4.56 2.0429-4.56 4.56-4.56 4.56 2.0429 4.56 4.56" fill="#6aff14"/>
   <path d="m54.96 780.72c0 2.3846-1.9354 4.32-4.32 4.32s-4.32-1.9354-4.32-4.32c0-2.3847 1.9354-4.32 4.32-4.32s4.32 1.9353 4.32 4.32" fill="#6fff1a"/>
   <path d="m54.72 780.96c0 2.0659-1.7741 3.84-3.96 3.84s-3.96-1.7741-3.96-3.96 1.7741-3.96 3.96-3.96 3.96 1.7741 3.96 3.96" fill="#71ff1d"/>
   <path d="m54.24 780.96c0 1.9334-1.6128 3.6-3.6 3.6s-3.6-1.6666-3.6-3.72 1.6128-3.72 3.6-3.72 3.6 1.6666 3.6 3.72" fill="#77ff24"/>
   <path d="m54 780.72c0 1.8548-1.5053 3.36-3.36 3.36s-3.36-1.5052-3.36-3.36c0-1.8547 1.5053-3.36 3.36-3.36s3.36 1.5053 3.36 3.36" fill="#7bff28"/>
   <path d="m53.76 780.72c0 1.7223-1.3978 3.12-3.12 3.12s-3.12-1.3977-3.12-3.12 1.3978-3.12 3.12-3.12 3.12 1.3977 3.12 3.12" fill="#81ff30"/>
   <path d="m53.52 780.72c0 1.5898-1.2902 2.88-2.88 2.88s-2.88-1.2902-2.88-2.88 1.2902-2.88 2.88-2.88 2.88 1.2902 2.88 2.88" fill="#84ff34"/>
   <path d="m53.28 780.72c0 1.4572-1.1827 2.64-2.64 2.64s-2.64-1.1828-2.64-2.64c0-1.4573 1.1827-2.64 2.64-2.64s2.64 1.1827 2.64 2.64" fill="#8aff3e"/>
   <path d="m53.04 780.72c0 1.3248-1.0752 2.4-2.4 2.4s-2.4-1.0752-2.4-2.4 1.0752-2.4 2.4-2.4 2.4 1.0752 2.4 2.4" fill="#8dff44"/>
   <path d="m52.8 780.72c0 1.1924-0.9677 2.16-2.16 2.16s-2.16-0.9676-2.16-2.16c0-1.1923 0.9677-2.16 2.16-2.16s2.16 0.9677 2.16 2.16" fill="#95ff4f"/>
   <path d="m52.56 780.72c0 1.0598-0.8602 1.92-1.92 1.92s-1.92-0.8602-1.92-1.92 0.8602-1.92 1.92-1.92 1.92 0.8602 1.92 1.92" fill="#9cff5a"/>
  </g>
  <path d="m352 356.71c0-12.365-10.035-22.4-22.4-22.4s-22.4 10.035-22.4 22.4 10.035 22.4 22.4 22.4 22.4-10.035 22.4-22.4" fill="#a0ff60"/>
  <g transform="matrix(10 0 0 10 -345.6 -460.35)">
   <path d="m69.44 81.707c0-1.0597-0.86013-1.92-1.92-1.92s-1.92 0.86027-1.92 1.92c0 1.0599 0.86013 1.92 1.92 1.92s1.92-0.86013 1.92-1.92" fill="#a7ff6c"/>
   <path d="m69.12 81.707c0-0.8832-0.7168-1.6-1.6-1.6s-1.6 0.7168-1.6 1.6 0.7168 1.6 1.6 1.6 1.6-0.7168 1.6-1.6" fill="#aaff71"/>
   <path d="m68.8 81.707c0-0.70653-0.57347-1.28-1.28-1.28s-1.28 0.57347-1.28 1.28 0.57347 1.28 1.28 1.28 1.28-0.57347 1.28-1.28" fill="#b0ff7d"/>
   <path d="m68.48 81.707c0-0.52987-0.43013-0.96-0.96-0.96s-0.96 0.43013-0.96 0.96 0.43013 0.96 0.96 0.96 0.96-0.43013 0.96-0.96" fill="#b4ff83"/>
   <path d="m68.16 81.387c0-0.10507-0.28667-0.32-0.64-0.32s-0.64 0.21493-0.64 0.48 0.28667 0.48 0.64 0.48 0.64-0.21493 0.64-0.48" fill="#c3ff9b"/>
  </g>
  <g transform="matrix(10 0 0 10 -345.6 -460.35)">
   <path d="m150.05 57.834c-4.4424-1.2363-9.1107-2.2077-13.704-2.2077-15.435 0-26.429 12.098-26.429 30.378 0 18.898 10.993 30.555 28.763 30.555 3.9153 0 7.8307-0.70647 11.37-2.6493l3.84-10.244h-0.22588c-4.7436 3.1791-10.391 5.5634-16.038 5.5634-11.595 0-19.125-11.568-19.125-24.55 0-12.805 7.2283-21.724 17.619-21.724 4.9695 0 9.7883 1.9428 13.93 5.0336z"/>
   <path d="m197.77 57.04v0.26493c3.2377 2.2077 2.7859 5.4751 2.7859 9.5373v38.503c0 4.0622 0.45177 7.3296-2.7859 9.5373v0.26492h12.424v-0.26492c-3.313-2.2077-2.7859-5.4751-2.7859-9.5373v-49.718h-0.22588c-1.1294 1.5012-3.0871 1.4129-4.8189 1.4129z"/>
   <path d="m242.59 57.04v0.26493c3.313 2.296 2.8612 5.4751 2.8612 9.5373v11.657c-3.1624-3.2674-7.3789-5.1219-11.595-5.1219-10.315 0-17.845 9.6256-17.845 21.547 0 13.158 8.0566 21.371 19.05 21.371 1.3553 0 2.6353 0 3.9153-0.44155l4.4424-7.9478c-2.033 1.5012-4.0659 2.561-6.4754 2.561-7.906 0-13.327-7.8595-13.327-16.779 0-8.0361 4.8942-14.483 10.918-14.483 3.9906 0 7.8307 2.1194 9.713 6.3582 1.4306 3.2674 1.2047 7.153 1.2047 10.685v18.898h9.713v-0.26492c-3.313-2.1194-2.8612-5.3868-2.8612-9.449v-49.806h-0.22588c-0.82825 1.4129-2.6353 1.4129-4.3671 1.4129z"/>
   <path d="m295.18 93.423c0.30117-11.392-6.7012-20.046-16.941-20.046-11.219 0-18.824 8.9192-18.824 21.194 0 12.275 8.8095 21.724 21.61 21.724 3.5388 0 7.153-0.61816 10.391-2.2077l3.7648-8.301h-0.22589c-3.4636 3.1791-7.8307 4.6804-12.348 4.6804-8.5083 0-14.908-6.2699-15.059-17.044zm-27.332-5.1219c0.90354-5.5634 4.6683-9.0958 9.713-9.0958 5.4212 0 8.8848 2.9142 9.713 9.0958z"/>
   <path d="m300.13 74.525v0.26493c3.2377 2.2077 2.7859 5.3868 2.7859 9.449v21.106c0 4.0622 0.45177 7.3296-2.8612 9.5373v0.26492h12.574v-0.26492c-3.313-2.2077-2.8612-5.4751-2.8612-9.5373v-12.363c0-9.0958 2.4094-12.628 8.1319-12.628 1.28 0 2.6353 0.35323 3.4636 1.4129v-8.1244l-2.7106-0.26493c-3.7647 0-7.2283 2.7376-8.8848 6.7115v-6.7115h-0.22588c-1.0541 1.0597-2.8612 1.148-4.593 1.148z"/>
   <path d="m360.96 110.47c-6.2495-0.79478-6.4001-3.444-6.4001-10.42v-13.246c-0.0753-10.685-6.2495-13.423-14.381-13.423l-4.8942 0.52985-5.0448 8.8309c3.3883-1.8545 6.4001-3.5323 10.24-3.5323 2.7859 0 7.2283 1.4129 7.2283 5.6518 0 9.6256-22.513 2.0311-22.513 18.456 0 7.3296 5.2706 12.981 12.875 12.981 1.28 0 2.6353-0.17662 3.9153-0.44155l4.4424-6.6231c-1.8071 0.61816-3.6142 1.2363-5.4212 1.2363-3.9906 0-8.2072-1.7662-8.2072-7.2413 0-5.3868 4.0659-6.3582 7.6801-7.3296 2.4847-0.70647 5.0448-1.4129 7.2283-2.7376v13.953c0 7.0647 4.9695 8.8309 9.9389 9.1841z"/>
   <path d="m192.78 110.47c-6.2495-0.79478-6.4001-3.444-6.4001-10.42v-13.246c-0.0753-10.685-6.2495-13.423-14.381-13.423l-4.8942 0.52985-5.0448 8.8309c3.3883-1.8545 6.4001-3.5323 10.24-3.5323 2.7859 0 7.2283 1.4129 7.2283 5.6518 0 9.6256-22.513 2.0311-22.513 18.456 0 7.3296 5.2706 12.981 12.875 12.981 1.28 0 2.6353-0.17662 3.9153-0.44155l4.4424-6.6231c-1.8071 0.61816-3.6142 1.2363-5.4212 1.2363-3.9906 0-8.2072-1.7662-8.2072-7.2413 0-5.3868 4.0659-6.3582 7.6801-7.3296 2.4847-0.70647 5.0448-1.4129 7.2283-2.7376v13.953c0 7.0647 4.9695 8.8309 9.9389 9.1841z"/>
  </g>
 </g>
</svg>
