<svg xmlns="http://www.w3.org/2000/svg" width="310" height="220"><path fill="#ffe048" d="M281 100.7l24-2.3-24.8-2.1c-2.2-.2-4-2.126-3.2-4.2l10.4-22.9-13.3 20.16c-2 2.83-5.14 2-6.5.2L253.71 69.7l9.4 23.3c1.25 2.17.5 3.3-1.7 3.6l-24.7 3.1 24.8 2.1c2.22.2 2.8 1.67 2 3.73l-9.1 23.36 14.2-20.5c1.3-1.8 4.3-2 5.7-.1l14.2 20-10.5-21.57c-1-2.0.8-5.7 3-6z"/><linearGradient id="A" gradientUnits="userSpaceOnUse" x1="157" y1="116.55" x2="220.86" y2="52.2"><stop offset=".1" stop-color="#f9ae36"/><stop offset=".8" stop-color="#f9cf36"/></linearGradient><path fill="url(#A)" d="M145.3 72L186.2 4l10.1 78 77 15.7L202 133.3l6.7 78.3-54-56L82 187.7l37.3-70L68 59z"/><path fill="#4c6abc" d="M53.2 37.7S25.2 75 28 132s39.2 67.7 59.2 64.7 30.4-6 64-24.5c0 0-46 43.8-85.8 43.8-44 0-60.3-40-60.3-78C5.1 95.7 29.5 53.2 53.2 37.7z"/></svg>